<svg xmlns="http://www.w3.org/2000/svg" width="256" height="256" viewBox="0 0 256 256" xml:space="preserve"><path fill="#69462e" d="M0 0h256v256H0z"/><path fill="#4f3422" d="M61.23 33.73c.78 2.06.28 5.13-1.11 6.84l-.18.22c-1.39 1.7-4.31 2.81-6.48 2.46l-.27-.04c-2.17-.35-4.59-2.32-5.37-4.38l-.1-.26c-.78-2.06-.28-5.13 1.11-6.84l.18-.22c1.39-1.7 4.31-2.81 6.48-2.46l.27.04c2.17.35 4.59 2.32 5.37 4.38l.1.26zm9.31 54.68c2.2-.08 4.95 1.39 6.12 3.26l3.98 6.37c1.17 1.87 1.27 4.98.24 6.92l-3.53 6.63c-1.03 1.94-3.68 3.59-5.88 3.67l-7.51.26c-2.2.08-4.95-1.39-6.12-3.26l-3.98-6.37c-1.17-1.87-1.27-4.98-.24-6.92l3.53-6.63c1.03-1.94 3.68-3.59 5.88-3.67l7.51-.26zm137.36 18.51c-1.26 1.81-4.08 3.13-6.27 2.95l-.3-.03c-2.19-.18-4.75-1.96-5.69-3.95l-.13-.27c-.94-1.99-.68-5.1.58-6.9l.17-.25c1.26-1.81 4.08-3.13 6.27-2.95l.3.03c2.19.18 4.75 1.96 5.69 3.95l.13.27c.94 1.99.68 5.1-.58 6.9l-.17.25zm27.3-82.86c1.99.94 3.77 3.5 3.95 5.69l.45 5.42c.18 2.19-1.15 5.01-2.96 6.27l-4.47 3.1c-1.81 1.25-4.92 1.51-6.9.57l-4.92-2.32c-1.99-.94-3.77-3.5-3.95-5.69l-.45-5.42c-.18-2.19 1.15-5.01 2.96-6.27l4.47-3.1c1.81-1.25 4.92-1.51 6.9-.57l4.92 2.32zm-12.66 148.98c.37 2.17-.71 5.09-2.41 6.5l-3.63 3.01c-1.69 1.4-4.77 1.93-6.83 1.16l-4.42-1.64c-2.06-.76-4.05-3.16-4.42-5.33l-.79-4.65c-.37-2.17.71-5.09 2.41-6.5l3.63-3.01c1.69-1.4 4.77-1.93 6.83-1.16l4.42 1.64c2.06.76 4.05 3.16 4.42 5.33l.79 4.65zM147.56 47.09c-.83 2.04-3.29 3.96-5.46 4.26l-4.65.65c-2.18.3-5.07-.87-6.42-2.6l-2.89-3.7c-1.35-1.74-1.78-4.82-.96-6.86l1.76-4.35c.83-2.04 3.29-3.96 5.46-4.26l4.65-.65c2.18-.3 5.07.87 6.42 2.6l2.89 3.7c1.35 1.74 1.78 4.82.96 6.86l-1.76 4.35zm.27 155.4c.81-2.05 3.25-3.99 5.42-4.31l.28-.04c2.18-.33 5.08.82 6.45 2.54l.17.22c1.37 1.72 1.83 4.81 1.02 6.85l-.1.26c-.81 2.05-3.25 3.99-5.42 4.31l-.28.04c-2.18.33-5.08-.82-6.45-2.54l-.17-.22c-1.37-1.72-1.83-4.81-1.02-6.85l.1-.26zM41.44 181.41c-.28 2.18-2.17 4.66-4.2 5.51l-4.06 1.7c-2.03.85-5.12.45-6.87-.88l-3.5-2.66c-1.75-1.33-2.95-4.21-2.68-6.39l.56-4.36c.28-2.18 2.17-4.66 4.2-5.51l4.06-1.7c2.03-.85 5.12-.45 6.87.88l3.5 2.66c1.75 1.33 2.95 4.21 2.68 6.39l-.56 4.36zm84.42 53.86c-.07 2.2-1.7 4.85-3.64 5.89l-3.32 1.79c-1.94 1.04-5.05.95-6.93-.21l-3.21-1.98c-1.87-1.16-3.35-3.9-3.28-6.1l.11-3.77c.07-2.2 1.7-4.85 3.64-5.89l3.32-1.79c1.94-1.04 5.05-.95 6.93.21l3.21 1.98c1.87 1.16 3.35 3.9 3.28 6.1l-.11 3.77zm104.61-12.9c.22 1.27-.41 3-1.4 3.83s-2.8 1.14-4.01.7c-1.21-.45-2.39-1.85-2.61-3.13-.22-1.27.41-3 1.4-3.83s2.8-1.14 4.01-.7 2.39 1.85 2.61 3.13zM54.56 236.9c-.61 1.94-2.73 3.89-4.72 4.34-1.99.44-4.74-.42-6.11-1.92-1.38-1.5-2-4.31-1.4-6.25.61-1.94 2.73-3.89 4.72-4.34 1.99-.44 4.74.42 6.11 1.92 1.38 1.5 2 4.31 1.4 6.25zm52.7-73.01c-.28 2.18-2.17 4.66-4.21 5.51l-4.93 2.05c-2.03.85-5.12.45-6.87-.89l-4.24-3.24c-1.75-1.34-2.95-4.21-2.67-6.4l.69-5.3c.28-2.18 2.17-4.66 4.21-5.51l4.93-2.05c2.03-.85 5.12-.45 6.87.89l4.24 3.24c1.75 1.34 2.95 4.21 2.67 6.4l-.69 5.3zm59.44-22.36c-.01 1.92-1.39 4.28-3.06 5.23-1.67.95-4.4.94-6.06-.04-1.66-.97-3.01-3.34-3-5.26.01-1.92 1.39-4.28 3.06-5.23 1.67-.95 4.4-.94 6.06.04 1.66.97 3.01 3.34 3 5.26zm-28.3-54.76c-.48 1.35-2.03 2.67-3.44 2.93-1.41.26-3.33-.42-4.26-1.52-.93-1.09-1.3-3.09-.82-4.45.48-1.35 2.03-2.67 3.44-2.93 1.41-.26 3.33.42 4.26 1.52.93 1.09 1.3 3.09.82 4.45z"/></svg>