<svg xmlns="http://www.w3.org/2000/svg" width="256" height="256"><path fill="#66869E" d="M0 0h256v256H0V0z"/><path fill="#88B0C9" d="M0 183.33c19.56-11.67 33.3-26.4 49.14-59.31C67.55 85.77 101.4 62.07 128.37 53c44.44-14.95 65.93-26.33 79.26-53H75.71C49.95 17.38 18.43 15.92 0 42.96v140.37zM207.63 256c13.33-26.67 8.59-29.22 14.82-43.39 6.24-14.17 13.98-17.61 33.54-29.28V42.96c-18.43 27.04-30.5 54.18-48.19 89.07-12.76 25.17-50.11 62.18-68.01 75.37-25.51 18.79-38.34 31.22-64.09 48.6"/><path fill="#98C8E3" d="M173.94 232.98c-.27-1.93 8.68-17.07 10.15-17.89 1.48-.83 13.13 10.23 13.61 11.97.48 1.74-4.09 16.37-6 16.58-1.91.19-17.49-8.74-17.76-10.66zM52.16 59.56c.77 1.26-1.48 13.62-2.02 14.9-.54 1.28-5.08 12.47-6.37 13.44-1.29.96-16.3-4.39-17.84-4.76-1.54-.37-8.06-7.97-7.94-9.64.12-1.67 2.55-17.34 3.45-18.55.9-1.21 11.78-3.75 13.31-3.33 1.53.42 16.64 6.68 17.41 7.94z"/><path fill="#779CB0" d="M176.28 78.52c.75 1.51-2.77 15.88-3.9 16.92-1.14 1.04-14.31 10.42-16.05 10.49-1.74.06-17.53-5.02-18.35-6.49-.82-1.47 2.43-16.78 2.43-18.5 0-1.72 7.22-12.21 8.82-13.03 1.6-.82 12.42-3.65 14.12-3.36 1.71.28 12.18 12.46 12.93 13.97z"/><path fill="#5A758C" d="M103.8 12.98c1.15-.8 10.85-1.88 12.09-1.28 1.24.6 5.89 7.93 6.64 8.97.75 1.04 3.8 15.32 2.74 16.32-1.06.99-11.53 3.06-12.77 2.92-1.24-.14-13.87-3.94-14.78-4.9-.91-.97.26-11.15-.01-12.53-.26-1.38 4.94-8.69 6.09-9.5zM102.07 205c-1.81 3.13-30.96-7.16-32.48-10.2-1.52-3.03 19.07-25.78 22.63-24.57 3.56 1.21 11.66 31.64 9.85 34.77z"/></svg>